<svg preserveAspectRatio="none" width="100%" height="100%" overflow="visible" style="display: block;" viewBox="0 0 35 35" fill="none" xmlns="http://www.w3.org/2000/svg">
<g id="Iconsans/Bold/Alert-Circle">
<path id="Vector" d="M17.5 4.375C14.9041 4.375 12.3665 5.14477 10.2081 6.58696C8.04975 8.02916 6.36748 10.079 5.37408 12.4773C4.38068 14.8756 4.12076 17.5146 4.62719 20.0606C5.13362 22.6066 6.38366 24.9452 8.21922 26.7808C10.0548 28.6163 12.3934 29.8664 14.9394 30.3728C17.4854 30.8792 20.1244 30.6193 22.5227 29.6259C24.921 28.6325 26.9708 26.9503 28.413 24.7919C29.8552 22.6335 30.625 20.0959 30.625 17.5C30.625 14.019 29.2422 10.6806 26.7808 8.21922C24.3194 5.75781 20.981 4.375 17.5 4.375ZM16.4063 10.9375C16.4063 10.6474 16.5215 10.3692 16.7266 10.1641C16.9317 9.95898 17.2099 9.84375 17.5 9.84375C17.7901 9.84375 18.0683 9.95898 18.2734 10.1641C18.4785 10.3692 18.5938 10.6474 18.5938 10.9375V20.125C18.5938 20.4151 18.4785 20.6933 18.2734 20.8984C18.0683 21.1035 17.7901 21.2187 17.5 21.2187C17.2099 21.2187 16.9317 21.1035 16.7266 20.8984C16.5215 20.6933 16.4063 20.4151 16.4063 20.125V10.9375ZM17.5 25.5208C17.2116 25.5208 16.9296 25.4353 16.6898 25.2751C16.45 25.1148 16.2631 24.8871 16.1527 24.6206C16.0423 24.3541 16.0134 24.0609 16.0697 23.778C16.126 23.4951 16.2649 23.2353 16.4688 23.0313C16.6728 22.8274 16.9326 22.6885 17.2155 22.6322C17.4984 22.5759 17.7916 22.6048 18.0581 22.7152C18.3246 22.8256 18.5523 23.0125 18.7126 23.2523C18.8728 23.4921 18.9583 23.7741 18.9583 24.0625C18.9583 24.4493 18.8047 24.8202 18.5312 25.0937C18.2577 25.3672 17.8868 25.5208 17.5 25.5208Z" fill="var(--fill-0, #505A5F)"/>
</g>
</svg>
