<svg preserveAspectRatio="none" width="100%" height="100%" overflow="visible" style="display: block;" viewBox="0 0 35 35" fill="none" xmlns="http://www.w3.org/2000/svg">
<g id="Iconsans/Bold/Email">
<path id="Vector" d="M27.125 5.83333H7.875C6.56115 5.83718 5.30221 6.36081 4.37318 7.28985C3.44414 8.21888 2.92051 9.47782 2.91667 10.7917V24.2083C2.92051 25.5222 3.44414 26.7811 4.37318 27.7102C5.30221 28.6392 6.56115 29.1628 7.875 29.1667H27.125C28.4388 29.1628 29.6978 28.6392 30.6268 27.7102C31.5559 26.7811 32.0795 25.5222 32.0833 24.2083V10.7917C32.0795 9.47782 31.5559 8.21888 30.6268 7.28985C29.6978 6.36081 28.4388 5.83718 27.125 5.83333ZM26.8479 14.0438L19.7896 18.6667C19.1246 19.1369 18.329 19.3868 17.5146 19.3813C16.6739 19.3818 15.8537 19.122 15.1667 18.6375L8.15208 14.0438C8.03143 13.9652 7.92743 13.8637 7.84601 13.745C7.76459 13.6263 7.70735 13.4927 7.67755 13.3519C7.64776 13.211 7.646 13.0657 7.67237 12.9242C7.69874 12.7827 7.75273 12.6477 7.83125 12.5271C7.90977 12.4064 8.01128 12.3024 8.13 12.221C8.24871 12.1396 8.3823 12.0823 8.52314 12.0526C8.66397 12.0228 8.8093 12.021 8.95081 12.0474C9.09233 12.0737 9.22726 12.1277 9.34792 12.2063L16.4062 16.8292C16.72 17.0568 17.0977 17.1795 17.4854 17.1795C17.8731 17.1795 18.2508 17.0568 18.5646 16.8292L25.6521 12.1771C25.7727 12.0986 25.9077 12.0446 26.0492 12.0182C26.1907 11.9918 26.336 11.9936 26.4769 12.0234C26.6177 12.0532 26.7513 12.1104 26.87 12.1918C26.9887 12.2733 27.0902 12.3773 27.1687 12.4979C27.2473 12.6186 27.3013 12.7535 27.3276 12.895C27.354 13.0365 27.3522 13.1819 27.3224 13.3227C27.2927 13.4635 27.2354 13.5971 27.154 13.7158C27.0726 13.8345 26.9686 13.9361 26.8479 14.0146V14.0438Z" fill="var(--fill-0, #505A5F)"/>
</g>
</svg>
