<svg preserveAspectRatio="none" width="100%" height="100%" overflow="visible" style="display: block;" viewBox="0 0 35 35" fill="none" xmlns="http://www.w3.org/2000/svg">
<g id="Iconsans/Bold/Alert-2">
<path id="Vector" d="M30.0854 24.7917L20.0229 7.29167C19.7665 6.84968 19.3985 6.4828 18.9557 6.22777C18.513 5.97274 18.011 5.8385 17.5 5.8385C16.989 5.8385 16.487 5.97274 16.0443 6.22777C15.6015 6.4828 15.2335 6.84968 14.9771 7.29167L4.91458 24.7917C4.65872 25.2348 4.52396 25.7375 4.52382 26.2493C4.52369 26.761 4.6582 27.2637 4.91384 27.707C5.16947 28.1503 5.53724 28.5186 5.98021 28.7748C6.42319 29.031 6.92577 29.1661 7.4375 29.1667H27.5625C28.0742 29.1661 28.5768 29.031 29.0198 28.7748C29.4628 28.5186 29.8305 28.1503 30.0862 27.707C30.3418 27.2637 30.4763 26.761 30.4762 26.2493C30.476 25.7375 30.3413 25.2348 30.0854 24.7917ZM16.4063 10.9375C16.4063 10.6474 16.5215 10.3692 16.7266 10.1641C16.9317 9.95898 17.2099 9.84375 17.5 9.84375C17.7901 9.84375 18.0683 9.95898 18.2734 10.1641C18.4785 10.3692 18.5938 10.6474 18.5938 10.9375V20.125C18.5938 20.4151 18.4785 20.6933 18.2734 20.8984C18.0683 21.1035 17.7901 21.2188 17.5 21.2188C17.2099 21.2188 16.9317 21.1035 16.7266 20.8984C16.5215 20.6933 16.4063 20.4151 16.4063 20.125V10.9375ZM17.5 25.5208C17.2116 25.5208 16.9296 25.4353 16.6898 25.2751C16.45 25.1148 16.2631 24.8871 16.1527 24.6206C16.0423 24.3541 16.0134 24.0609 16.0697 23.778C16.126 23.4951 16.2649 23.2353 16.4688 23.0313C16.6728 22.8274 16.9326 22.6885 17.2155 22.6322C17.4984 22.5759 17.7916 22.6048 18.0581 22.7152C18.3246 22.8256 18.5523 23.0125 18.7126 23.2523C18.8728 23.4921 18.9583 23.7741 18.9583 24.0625C18.9583 24.4493 18.8047 24.8202 18.5312 25.0937C18.2577 25.3672 17.8868 25.5208 17.5 25.5208Z" fill="var(--fill-0, #505A5F)"/>
</g>
</svg>
